<?xml version="1.0" encoding="UTF-8" standalone="no"?>
<svg
   height="48"
   viewBox="0 96 960 960"
   width="48"
   version="1.1"
   id="svg4"
   sodipodi:docname="call_FILL0_wght700_GRAD0_opsz48.svg"
   inkscape:version="1.2.2 (b0a8486541, 2022-12-01)"
   xmlns:inkscape="http://www.inkscape.org/namespaces/inkscape"
   xmlns:sodipodi="http://sodipodi.sourceforge.net/DTD/sodipodi-0.dtd"
   xmlns="http://www.w3.org/2000/svg"
   xmlns:svg="http://www.w3.org/2000/svg">
  <defs
     id="defs8" />
  <sodipodi:namedview
     id="namedview6"
     pagecolor="#ffffff"
     bordercolor="#000000"
     borderopacity="0.25"
     inkscape:showpageshadow="2"
     inkscape:pageopacity="0.0"
     inkscape:pagecheckerboard="0"
     inkscape:deskcolor="#d1d1d1"
     showgrid="false"
     inkscape:zoom="9.375"
     inkscape:cx="24.053333"
     inkscape:cy="24"
     inkscape:window-width="1920"
     inkscape:window-height="1011"
     inkscape:window-x="0"
     inkscape:window-y="0"
     inkscape:window-maximized="1"
     inkscape:current-layer="svg4" />
  <path
     d="M796 959q-127 0-251.871-62.054-124.871-62.055-225-161.5Q219 636 157 510.5 95 385 95 259q0-29 20-49t49-20h140q30.611 0 50.306 16Q374 222 381 253l27 110q5 27-.786 46.625Q401.429 429.25 385 443l-104 95q50 79 108.066 136.529Q447.133 732.058 519 772l100-101q18-18 38.5-24.5t45.5-.5l98 24q31.312 8.375 47.656 28.188Q865 718 865 749v140q0 30-20 50t-49 20ZM234 455l80-75-22-96H191q-2 34.033 8.457 75.458Q209.914 400.882 234 455Zm536 408V760l-88-20-77 80q36 18 79.5 29t85.5 14Zm-166-42ZM234 455Z"
     id="path2"
     style="fill:#e6324b;fill-opacity:1" />
</svg>
