<?xml version="1.0" encoding="UTF-8" standalone="no"?>
<svg
   height="48"
   viewBox="0 96 960 960"
   width="48"
   version="1.1"
   id="svg989"
   sodipodi:docname="chat_FILL0_wght700_GRAD0_opsz48.svg"
   inkscape:version="1.2.2 (b0a8486541, 2022-12-01)"
   xmlns:inkscape="http://www.inkscape.org/namespaces/inkscape"
   xmlns:sodipodi="http://sodipodi.sourceforge.net/DTD/sodipodi-0.dtd"
   xmlns="http://www.w3.org/2000/svg"
   xmlns:svg="http://www.w3.org/2000/svg">
  <defs
     id="defs993" />
  <sodipodi:namedview
     id="namedview991"
     pagecolor="#ffffff"
     bordercolor="#000000"
     borderopacity="0.25"
     inkscape:showpageshadow="2"
     inkscape:pageopacity="0.0"
     inkscape:pagecheckerboard="0"
     inkscape:deskcolor="#d1d1d1"
     showgrid="false"
     inkscape:zoom="9.375"
     inkscape:cx="23.68"
     inkscape:cy="25.173333"
     inkscape:window-width="1920"
     inkscape:window-height="1011"
     inkscape:window-x="0"
     inkscape:window-y="0"
     inkscape:window-maximized="1"
     inkscape:current-layer="svg989" />
  <path
     d="m 270,689.99645 h 254 q 12,0 20.5,-8.675 8.5,-8.676 8.5,-21.5 0,-12.825 -8.625,-21.325 -8.625,-8.5 -21.375,-8.5 H 269 q -12,0 -20.5,8.675 -8.5,8.676 -8.5,21.5 0,12.825 8.625,21.325 8.625,8.5 21.375,8.5 z m 0,-130 h 421 q 12,0 20.5,-8.675 8.5,-8.676 8.5,-21.5 0,-12.825 -8.625,-21.325 -8.625,-8.5 -21.375,-8.5 H 269 q -12,0 -20.5,8.675 -8.5,8.676 -8.5,21.5 0,12.825 8.625,21.325 8.625,8.5 21.375,8.5 z m 0,-130 h 421 q 12,0 20.5,-8.675 8.5,-8.676 8.5,-21.5 0,-12.825 -8.625,-21.325 -8.625,-8.5 -21.375,-8.5 H 269 q -12,0 -20.5,8.675 -8.5,8.676 -8.5,21.5 0,12.825 8.625,21.325 8.625,8.5 21.375,8.5 z m -215,491 v -643 q 0,-38.463 27.475,-66.731 27.475,-28.269 66.525,-28.269 h 662 q 38.463,0 66.731,28.269 28.269,28.268 28.269,66.731 v 502 q 0,38.05 -28.269,66.025 -28.268,27.975 -66.731,27.975 H 215 l -80,80 q -23,23 -51.5,10.75 -28.5,-12.25 -28.5,-43.75 z m 94,-93 48,-48 h 614 v -502 H 149 Z m 0,-550 v 550 z"
     id="path987"
     style="fill:#e6324b;fill-opacity:1" />
</svg>
