<?xml version="1.0" encoding="UTF-8" standalone="no"?>
<svg
   version="1.1"
   viewBox="0 0 500 500"
   width="500"
   height="500"
   id="svg9"
   sodipodi:docname="2nENccSnNDle71bIwVjo7sgUSGf.svg"
   inkscape:version="1.3.2 (091e20e, 2023-11-25, custom)"
   inkscape:export-filename="genzea-logo.svg"
   inkscape:export-xdpi="270"
   inkscape:export-ydpi="270"
   xmlns:inkscape="http://www.inkscape.org/namespaces/inkscape"
   xmlns:sodipodi="http://sodipodi.sourceforge.net/DTD/sodipodi-0.dtd"
   xmlns="http://www.w3.org/2000/svg"
   xmlns:svg="http://www.w3.org/2000/svg">
  <defs
     id="defs9" />
  <sodipodi:namedview
     id="namedview9"
     pagecolor="#ffffff"
     bordercolor="#000000"
     borderopacity="0.25"
     inkscape:showpageshadow="2"
     inkscape:pageopacity="0.0"
     inkscape:pagecheckerboard="0"
     inkscape:deskcolor="#d1d1d1"
     inkscape:zoom="1.4142136"
     inkscape:cx="204.35386"
     inkscape:cy="277.53941"
     inkscape:window-width="1920"
     inkscape:window-height="991"
     inkscape:window-x="-9"
     inkscape:window-y="-9"
     inkscape:window-maximized="1"
     inkscape:current-layer="svg9"
     showguides="true" />
  <rect
     style="display:none;fill:#000000;fill-opacity:1;stroke:none;stroke-width:20;stroke-linecap:round;stroke-dasharray:none;stroke-opacity:1;paint-order:stroke fill markers"
     id="rect13"
     width="500"
     height="500"
     x="0"
     y="0"
     sodipodi:insensitive="true" />
  <path
     id="path11"
     style="color:#000000;fill:#2a7fff;fill-opacity:1;stroke-linecap:round;-inkscape-stroke:none;paint-order:stroke fill markers"
     d="m 250,166.8418 c -22.20398,0 -40.64054,10.91889 -55.76953,25.49609 -8.1583,7.86075 -15.57194,16.87861 -22.66016,26.29883 4.20405,5.77173 8.30026,11.54028 12.24805,17.18164 0.4087,0.58403 0.80349,1.13336 1.21094,1.71484 8.0807,-11.07128 16.14755,-21.33958 24.46484,-29.35351 C 222.2843,195.85601 234.8347,188.8418 250,188.8418 c 15.17397,0 27.68785,6.9942 40.42188,19.2832 8.30025,8.01018 16.33968,18.28078 24.38476,29.35938 0.34753,-0.49918 0.68479,-0.96964 1.0332,-1.47071 3.99258,-5.74187 8.13715,-11.6182 12.39258,-17.49609 -7.04045,-9.39422 -14.4109,-18.38422 -22.5332,-26.22266 C 290.61542,177.73828 272.19531,166.8418 250,166.8418 Z M 72.875,256 c -5.635513,0 -11,4.81282 -11,11 v 54.3125 c 2e-5,1.99415 0.538998,3.85989 1.466797,5.47266 a 11,11 0 0 0 0.03125,0.0508 c 0.960247,1.64837 2.333743,3.02264 3.982422,3.98242 a 11,11 0 0 0 0.04297,0.0254 c 1.614071,0.92984 3.480045,1.46873 5.476562,1.46875 23.019245,0 42.184789,-10.77538 57.863279,-25.36328 8.24134,-7.66807 15.70812,-16.44326 22.7832,-25.63086 -3.91702,-5.46375 -7.75054,-10.91941 -11.48632,-16.25781 -0.63513,-0.90759 -1.25741,-1.76308 -1.89063,-2.66407 -7.96227,10.71077 -16.00325,20.64332 -24.39062,28.44727 -10.13565,9.43062 -20.328537,15.80255 -31.878909,18.28516 V 278 H 93.5 c 6.075042,-6e-5 10.99994,-4.92496 11,-11 -6e-5,-6.07503 -4.924962,-10.99994 -11,-11 z m 286.72266,6.45312 c -0.63216,0.90542 -1.25256,1.76572 -1.88672,2.67774 -3.72653,5.35927 -7.55362,10.83621 -11.4668,16.32031 6.93915,9.06466 14.26169,17.7222 22.33203,25.31055 15.53303,14.60529 34.5353,25.44718 57.40625,25.55078 a 11,11 0 0 0 11.04883,-10.94922 11,11 0 0 0 -10.94922,-11.04883 c -16.15238,-0.0732 -29.32371,-7.25135 -42.43555,-19.58007 -8.26523,-7.77161 -16.19384,-17.64199 -24.04882,-28.28126 z" />
  <path
     id="path19"
     style="color:#000000;fill:#c83737;stroke-width:0.462963;stroke-linecap:round;-inkscape-stroke:none"
     d="m 72.875,167.70312 a 11,11 0 0 0 -11,11 11,11 0 0 0 11,11 c 16.335729,0 29.6454,7.15772 42.87891,19.47071 13.2335,12.31299 25.62964,29.66623 38.16015,47.57226 12.53051,17.90604 25.18739,36.35637 40.31641,50.9336 15.12901,14.57722 33.56553,25.49609 55.76953,25.49609 22.19533,0 40.61541,-10.89646 55.69922,-25.45312 13.50011,-13.02831 24.97806,-29.15396 36.16211,-45.22266 h 83.99414 c 6.90355,0 12.5,-5.59645 12.5,-12.5 0,-6.90355 -5.59645,-12.5 -12.5,-12.5 h -66.20899 c 7.8393,-10.614 15.75164,-20.45911 24,-28.21484 13.11185,-12.32875 26.28315,-19.50887 42.43555,-19.58204 a 11,11 0 0 0 10.94922,-11.04882 11,11 0 0 0 -11.04883,-10.95118 c -22.87097,0.10361 -41.87321,10.94742 -57.40625,25.55274 -15.53302,14.60531 -28.3621,33.10358 -40.83203,51.03711 -12.46993,17.93353 -24.58823,35.3106 -37.32226,47.59961 -12.73404,12.28901 -25.24789,19.2832 -40.42188,19.2832 -15.16532,0 -27.71569,-7.01615 -40.50586,-19.33984 C 196.70396,279.51225 184.50902,262.09466 171.93945,244.13281 159.36988,226.17096 146.4168,207.65628 130.73828,193.06836 115.05977,178.48044 95.894268,167.70312 72.875,167.70312 Z" />
  <path
     id="rect1"
     style="fill:#c83737;stroke:#9dec64;stroke-width:0;stroke-linecap:round;paint-order:stroke fill markers"
     d="m 240.91797,199.94727 c -3.2017,0.7994 -6.30976,2.09098 -9.41797,3.81445 v 92.49219 c 3.10839,1.72388 6.21613,3.0148 9.41797,3.81445 z M 260,200.21875 v 99.58008 c 3.19412,-0.88702 6.30406,-2.23697 9.41797,-4.0586 V 204.27734 C 266.30407,202.456 263.19402,201.10567 260,200.21875 Z m -47.58203,19.32227 c -3.10569,3.30767 -6.24612,6.96967 -9.41797,10.93164 v 39.1289 c 3.17051,3.9532 6.30415,7.51138 9.41797,10.82227 z M 288.5,220.53516 v 58.88281 c 3.11418,-3.39331 6.24899,-7.05814 9.41797,-11.07813 v -36.60156 c -3.16803,-4.02483 -6.31213,-7.81306 -9.41797,-11.20312 z"
     sodipodi:nodetypes="cccccccccccccccccccc" />
</svg>
