<?xml version="1.0" encoding="UTF-8" standalone="no"?>
<svg
   version="1.0"
   width="95.698601pt"
   height="35.999992pt"
   viewBox="0 0 95.698601 35.999992"
   preserveAspectRatio="xMidYMid"
   id="svg321"
   xmlns="http://www.w3.org/2000/svg"
   xmlns:svg="http://www.w3.org/2000/svg">
  <defs
     id="defs325" />
  <metadata
     id="metadata177">
Created by potrace 1.16, written by Peter Selinger 2001-2019
</metadata>
  <g
     id="layer3"
     transform="translate(0,-40.500008)">
    <g
       id="g634">
      <path
         d="m 17.1643,76.499997 q -5.0785,0 -8.9357,-2.37857 Q 4.3715,71.742847 2.1858,67.692857 0,63.578567 0,58.435707 q 0,-5.14285 2.1858,-9.19285 2.1857,-4.05 6.0428,-6.36428 3.8572,-2.37857 8.9357,-2.37857 3.2143,0 6.0429,1.15714 2.8285,1.15714 5.0143,3.15 2.1857,1.92857 3.2785,4.5 l -4.3714,2.25 q -1.2857,-2.76429 -3.9214,-4.5 -2.6357,-1.73572 -6.0429,-1.73572 -3.4071,0 -6.1714,1.73572 -2.7,1.67142 -4.3071,4.69285 -1.5429,2.95714 -1.5429,6.75 0,3.72857 1.5429,6.75 1.6071,2.95714 4.3071,4.69285 2.7643,1.73572 6.1714,1.73572 3.4072,0 5.9786,-1.73572 2.6357,-1.73571 3.9857,-4.62857 l 4.3714,2.37858 q -1.0928,2.50714 -3.2785,4.49999 -2.1858,1.99286 -5.0143,3.15 -2.8286,1.15715 -6.0429,1.15715 z"
         id="path586"
         style="font-size:64.2857px;font-family:'Plus Jakarta Sans';-inkscape-font-specification:'Plus Jakarta Sans, Normal';text-align:center;text-anchor:middle;fill:#e6324b;stroke-width:1.00179;paint-order:stroke fill markers" />
      <path
         id="path566"
         style="display:inline;opacity:1;vector-effect:non-scaling-stroke;fill:#e6324b;stroke-width:0.0129405;-inkscape-stroke:hairline;paint-order:stroke fill markers"
         d="m 1468.8839,135.25764 c 0,0 -4.0758,5.13689 -5.5653,8.03432 -0.8609,1.67444 -1.9043,3.32309 -1.9043,5.31756 0,1.99447 0.7923,3.90728 2.2026,5.31758 1.2988,1.29878 3.0239,2.07164 4.8464,2.18606 -0.341,-1.8789 -0.6859,-4.85722 -1.0205,-4.96995 -2.0686,-0.69675 -3.9312,-3.00154 -3.9312,-5.42279 0,-0.33167 0.023,-1.31032 0.1008,-0.98784 0.6107,2.53774 2.7119,4.43014 5.322,4.43499 2.6193,-0.005 4.7251,-1.90946 5.3265,-4.45878 0.01,-0.0414 0.018,-0.0617 0.027,-0.0653 0.056,-0.0248 0.069,0.7799 0.07,1.07695 0,2.38915 -1.7463,4.70002 -3.7819,5.42279 -0.3521,0.12499 -0.7466,3.09155 -1.126,4.9667 1.8063,-0.12396 3.5143,-0.89443 4.8026,-2.18281 1.4104,-1.41031 2.2026,-3.32312 2.2026,-5.31759 0,-1.99447 -1.0363,-3.64676 -1.9042,-5.31755 -1.5106,-2.90826 -5.6665,-8.03432 -5.6665,-8.03432 z m 0.051,9.62535 c 0.9571,1e-5 1.733,0.91609 1.733,1.73305 0,0.81695 -0.7759,1.73303 -1.733,1.73304 -0.9571,1e-5 -1.7437,-0.77591 -1.7437,-1.73304 0,-0.95714 0.7866,-1.73305 1.7437,-1.73305 z"
         transform="translate(-1451.7187,-87.128903)" />
    </g>
    <path
       d="m 44.9949,76.5 q -2.8842,0 -5.1274,-1.31746 -2.2076,-1.35305 -3.4538,-3.63189 -1.2463,-2.31444 -1.2463,-5.16299 0,-2.91975 1.2463,-5.16298 1.2818,-2.24323 3.4182,-3.52507 2.1364,-1.31746 4.8425,-1.31746 2.172,0 3.8812,0.74775 1.7091,0.74774 2.8841,2.06519 1.175,1.28185 1.7804,2.95537 0.6409,1.67352 0.6409,3.56068 0,0.46288 -0.036,0.96138 -0.036,0.49849 -0.1424,0.92578 H 38.336 v -3.20462 h 13.0677 l -1.9228,1.45988 Q 49.837,64.10883 49.2317,62.75577 48.662,61.36711 47.4514,60.58376 46.2763,59.7648 44.674,59.7648 q -1.6023,0 -2.8485,0.81896 -1.2463,0.78335 -1.9228,2.27883 -0.6765,1.45988 -0.5341,3.56068 -0.178,1.95838 0.5341,3.41825 0.7478,1.45988 2.0652,2.27884 1.3531,0.81896 3.0622,0.81896 1.7447,0 2.9554,-0.78335 1.2462,-0.78335 1.9583,-2.02959 l 3.2759,1.6023 q -0.5697,1.35306 -1.7804,2.45687 -1.175,1.06821 -2.8485,1.70913 Q 46.9529,76.5 44.9945,76.5 Z"
       id="path589"
       style="font-size:35.6068px;font-family:'Plus Jakarta Sans';-inkscape-font-specification:'Plus Jakarta Sans, @wght=600';font-variation-settings:'wght' 600;text-align:center;text-anchor:middle;fill:#e6324b;stroke-width:0.554875;paint-order:stroke fill markers" />
    <path
       d="M 57.5284,76.5 V 57.23673 h 3.8455 v 3.88114 l -0.3561,-0.56971 q 0.641,-1.88716 2.0652,-2.70612 1.4243,-0.85456 3.4183,-0.85456 h 1.175 v 3.6675 h -1.6735 q -1.994,0 -3.2402,1.24624 -1.2107,1.21063 -1.2107,3.48946 V 76.5 Z"
       id="path591"
       style="font-size:35.6068px;font-family:'Plus Jakarta Sans';-inkscape-font-specification:'Plus Jakarta Sans, @wght=600';font-variation-settings:'wght' 600;text-align:center;text-anchor:middle;fill:#e6324b;stroke-width:0.554875;paint-order:stroke fill markers" />
    <path
       d="M 71.3437,76.5 V 57.23673 h 4.0236 V 76.5 Z m 0,-21.89818 v -4.62888 h 4.0236 v 4.62888 z"
       id="path593"
       style="font-size:35.6068px;font-family:'Plus Jakarta Sans';-inkscape-font-specification:'Plus Jakarta Sans, @wght=600';font-variation-settings:'wght' 600;text-align:center;text-anchor:middle;fill:#e6324b;stroke-width:0.554875;paint-order:stroke fill markers" />
    <path
       d="m 85.5863,76.5 q -1.9584,0 -3.4539,-0.67653 -1.4598,-0.71214 -2.2788,-1.92277 -0.8189,-1.24624 -0.8189,-2.91976 0,-1.5667 0.6765,-2.81294 0.7121,-1.24623 2.172,-2.1008 1.4599,-0.85456 3.6675,-1.21063 l 6.6941,-1.10381 v 3.16901 l -5.9108,1.03259 q -1.6023,0.28486 -2.35,1.0326 -0.7477,0.71214 -0.7477,1.85155 0,1.10382 0.8189,1.81595 0.8546,0.67653 2.172,0.67653 1.6379,0 2.8486,-0.71214 1.2462,-0.71213 1.9227,-1.88716 0.6766,-1.21063 0.6766,-2.67051 v -4.94934 q 0,-1.42427 -1.0682,-2.31444 -1.0326,-0.92578 -2.7774,-0.92578 -1.6023,0 -2.8129,0.85456 -1.175,0.81896 -1.7447,2.13641 l -3.3471,-1.67352 q 0.5341,-1.42427 1.7448,-2.49247 1.2106,-1.10381 2.8129,-1.70913 1.6379,-0.60532 3.4539,-0.60532 2.2788,0 4.0235,0.85457 1.7804,0.85456 2.7417,2.38565 0.997,1.49549 0.997,3.48947 v 12.96087 h -3.8455 v -3.48946 l 0.819,0.10682 q -0.6766,1.17502 -1.7448,2.02959 -1.0326,0.85456 -2.3856,1.31745 Q 87.2242,76.5 85.5863,76.5 Z"
       id="path595"
       style="font-size:35.6068px;font-family:'Plus Jakarta Sans';-inkscape-font-specification:'Plus Jakarta Sans, @wght=600';font-variation-settings:'wght' 600;text-align:center;text-anchor:middle;fill:#e6324b;stroke-width:0.554875;paint-order:stroke fill markers" />
  </g>
</svg>
