<?xml version="1.0" encoding="UTF-8" standalone="no"?>
<svg
   version="1.0"
   width="36pt"
   height="36pt"
   viewBox="0 0 36 36"
   preserveAspectRatio="xMidYMid"
   id="svg321"
   xmlns="http://www.w3.org/2000/svg"
   xmlns:svg="http://www.w3.org/2000/svg">
  <defs
     id="defs325" />
  <metadata
     id="metadata177">
Created by potrace 1.16, written by Peter Selinger 2001-2019
</metadata>
  <g
     id="layer2"
     style="display:inline;opacity:1"
     transform="translate(-1451.7187,-87.128906)">
    <g
       id="g629"
       transform="translate(2.25)">
      <path
         d="m 1468.883,123.1289 q -5.0785,0 -8.9357,-2.37857 -3.8571,-2.37858 -6.0428,-6.42857 -2.1858,-4.11429 -2.1858,-9.25715 0,-5.142851 2.1858,-9.19285 2.1857,-4.049999 6.0428,-6.364284 3.8572,-2.378571 8.9357,-2.378571 3.2143,0 6.0429,1.157143 2.8285,1.157142 5.0143,3.149999 2.1857,1.928571 3.2785,4.499999 l -4.3714,2.249999 q -1.2857,-2.764285 -3.9214,-4.499999 -2.6357,-1.735713 -6.0429,-1.735713 -3.4071,0 -6.1714,1.735713 -2.7,1.671429 -4.3071,4.692856 -1.5429,2.957138 -1.5429,6.749998 0,3.72857 1.5429,6.75 1.6071,2.95714 4.3071,4.69285 2.7643,1.73572 6.1714,1.73572 3.4072,0 5.9786,-1.73572 2.6357,-1.73571 3.9857,-4.62857 l 4.3714,2.37858 q -1.0928,2.50714 -3.2785,4.49999 -2.1858,1.99286 -5.0143,3.15 -2.8286,1.15715 -6.0429,1.15715 z"
         id="path636"
         style="font-size:64.2857px;font-family:'Plus Jakarta Sans';-inkscape-font-specification:'Plus Jakarta Sans, Normal';text-align:center;text-anchor:middle;fill:#e6324b;stroke-width:1.00179;paint-order:stroke fill markers" />
      <path
         id="path293"
         style="display:inline;vector-effect:non-scaling-stroke;fill:#e6324b;stroke-width:0.0129405;-inkscape-stroke:hairline;paint-order:stroke fill markers"
         d="m 1468.8839,94.757641 c 0,0 -4.0758,5.136893 -5.5653,8.034319 -0.8609,1.67444 -1.9043,3.32309 -1.9043,5.31756 0,1.99447 0.7923,3.90728 2.2026,5.31758 1.2988,1.29878 3.0239,2.07164 4.8464,2.18606 -0.341,-1.8789 -0.6859,-4.85722 -1.0205,-4.96995 -2.0686,-0.69675 -3.9312,-3.00154 -3.9312,-5.42279 0,-0.33167 0.023,-1.31032 0.1008,-0.98784 0.6107,2.53774 2.7119,4.43014 5.322,4.43499 2.6193,-0.005 4.7251,-1.90946 5.3265,-4.45878 0.01,-0.0414 0.018,-0.0617 0.027,-0.0653 0.056,-0.0248 0.069,0.7799 0.07,1.07695 0,2.38915 -1.7463,4.70002 -3.7819,5.42279 -0.3521,0.12499 -0.7466,3.09155 -1.126,4.9667 1.8063,-0.12396 3.5143,-0.89443 4.8026,-2.18281 1.4104,-1.41031 2.2026,-3.32312 2.2026,-5.31759 0,-1.99447 -1.0363,-3.64676 -1.9042,-5.31755 -1.5106,-2.908262 -5.6665,-8.034324 -5.6665,-8.034324 z m 0.051,9.625349 c 0.9571,10e-6 1.733,0.91609 1.733,1.73305 0,0.81695 -0.7759,1.73303 -1.733,1.73304 -0.9571,1e-5 -1.7437,-0.77591 -1.7437,-1.73304 0,-0.95714 0.7866,-1.73305 1.7437,-1.73305 z" />
    </g>
  </g>
</svg>
