<?xml version="1.0" encoding="UTF-8" standalone="no"?>
<svg
   height="48"
   viewBox="0 96 960 960"
   width="48"
   version="1.1"
   id="svg1481"
   sodipodi:docname="mail_FILL0_wght700_GRAD0_opsz48.svg"
   inkscape:version="1.2.2 (b0a8486541, 2022-12-01)"
   xmlns:inkscape="http://www.inkscape.org/namespaces/inkscape"
   xmlns:sodipodi="http://sodipodi.sourceforge.net/DTD/sodipodi-0.dtd"
   xmlns="http://www.w3.org/2000/svg"
   xmlns:svg="http://www.w3.org/2000/svg">
  <defs
     id="defs1485" />
  <sodipodi:namedview
     id="namedview1483"
     pagecolor="#ffffff"
     bordercolor="#000000"
     borderopacity="0.25"
     inkscape:showpageshadow="2"
     inkscape:pageopacity="0.0"
     inkscape:pagecheckerboard="0"
     inkscape:deskcolor="#d1d1d1"
     showgrid="false"
     inkscape:zoom="9.375"
     inkscape:cx="17.653333"
     inkscape:cy="21.76"
     inkscape:window-width="1920"
     inkscape:window-height="1011"
     inkscape:window-x="0"
     inkscape:window-y="0"
     inkscape:window-maximized="1"
     inkscape:current-layer="svg1481" />
  <path
     d="m 106.92949,964.84724 q -44.005812,0 -74.967651,-30.96184 Q 1,902.92356 1,858.91774 V 293.20917 Q 1,248.73794 31.961839,217.44591 62.923678,186.15276 106.92949,186.15276 H 852.9436 q 44.47123,0 75.76325,31.29315 Q 960,248.73794 960,293.20917 v 565.70857 q 0,44.00582 -31.29315,74.96766 -31.29202,30.96184 -75.76325,30.96184 z M 852.9436,381.10811 509.34776,612.0885 q -7.78807,4.5437 -14.65546,6.79752 -6.86739,2.25382 -14.75575,2.25382 -7.88837,0 -14.75576,-2.25382 -6.86738,-2.25382 -14.65546,-6.79752 L 106.92949,381.10811 V 858.91774 H 852.9436 Z M 479.93655,538.87544 848.43596,293.20917 H 112.56404 Z M 106.92949,381.10811 v 11.26909 -61.7783 1.20016 -38.58989 38.31492 -2.15465 63.00776 -11.26909 477.80963 z"
     id="path1479"
     style="fill:#e6324b;fill-opacity:1;stroke-width:1.12691" />
</svg>
