<?xml version="1.0" encoding="UTF-8" standalone="no"?>
<!-- Created with Inkscape (http://www.inkscape.org/) -->

<svg
   width="396.875mm"
   height="396.875mm"
   viewBox="0 0 396.875 396.875"
   version="1.1"
   id="svg5"
   xml:space="preserve"
   sodipodi:docname="pattern.svg"
   inkscape:version="1.2.2 (b0a8486541, 2022-12-01)"
   xmlns:inkscape="http://www.inkscape.org/namespaces/inkscape"
   xmlns:sodipodi="http://sodipodi.sourceforge.net/DTD/sodipodi-0.dtd"
   xmlns:xlink="http://www.w3.org/1999/xlink"
   xmlns="http://www.w3.org/2000/svg"
   xmlns:svg="http://www.w3.org/2000/svg"><sodipodi:namedview
     id="namedview7"
     pagecolor="#ffffff"
     bordercolor="#000000"
     borderopacity="0.25"
     inkscape:showpageshadow="2"
     inkscape:pageopacity="0.0"
     inkscape:pagecheckerboard="0"
     inkscape:deskcolor="#d1d1d1"
     inkscape:document-units="mm"
     showgrid="false"
     showguides="true"
     inkscape:zoom="0.13189721"
     inkscape:cx="697.51284"
     inkscape:cy="2297.2434"
     inkscape:window-width="1920"
     inkscape:window-height="1011"
     inkscape:window-x="0"
     inkscape:window-y="0"
     inkscape:window-maximized="1"
     inkscape:current-layer="layer1" /><defs
     id="defs2"><clipPath
       clipPathUnits="userSpaceOnUse"
       id="clipPath977"><rect
         style="font-variation-settings:'wght' 600;vector-effect:non-scaling-stroke;fill:#c0bfbc;stroke:none;stroke-width:0.387173;-inkscape-stroke:hairline;paint-order:stroke fill markers"
         id="rect979"
         width="264.58337"
         height="264.58337"
         x="0.77088422"
         y="329.00162" /></clipPath></defs><g
     inkscape:label="Layer 1"
     inkscape:groupmode="layer"
     id="layer1"
     transform="translate(29.057871,-472.5727)"><g
       id="g9027"
       transform="matrix(0.50000002,0,0,0.50000002,-62.073042,275.44216)"><g
         id="g973"
         clip-path="url(#clipPath977)"
         transform="matrix(0.49999992,0,0,0.49999992,65.644898,229.76029)"
         inkscape:tile-cx="132.23282"
         inkscape:tile-cy="459.32403"
         inkscape:tile-w="132.29166"
         inkscape:tile-h="132.29166"
         inkscape:tile-x0="66.030339"
         inkscape:tile-y0="394.26106"><g
           id="g832"
           transform="matrix(2.769928,-1.5992187,1.5992187,2.769928,-4025.8803,2384.3297)"><path
             d="m 1468.883,123.1289 q -5.0785,0 -8.9357,-2.37857 -3.8571,-2.37858 -6.0428,-6.42857 -2.1858,-4.11429 -2.1858,-9.25715 0,-5.142851 2.1858,-9.19285 2.1857,-4.049999 6.0428,-6.364284 3.8572,-2.378571 8.9357,-2.378571 3.2143,0 6.0429,1.157143 2.8285,1.157142 5.0143,3.149999 2.1857,1.928571 3.2785,4.499999 l -4.3714,2.249999 q -1.2857,-2.764285 -3.9214,-4.499999 -2.6357,-1.735713 -6.0429,-1.735713 -3.4071,0 -6.1714,1.735713 -2.7,1.671429 -4.3071,4.692856 -1.5429,2.957138 -1.5429,6.749998 0,3.72857 1.5429,6.75 1.6071,2.95714 4.3071,4.69285 2.7643,1.73572 6.1714,1.73572 3.4072,0 5.9786,-1.73572 2.6357,-1.73571 3.9857,-4.62857 l 4.3714,2.37858 q -1.0928,2.50714 -3.2785,4.49999 -2.1858,1.99286 -5.0143,3.15 -2.8286,1.15715 -6.0429,1.15715 z"
             id="path828"
             style="font-size:64.2857px;font-family:'Plus Jakarta Sans';-inkscape-font-specification:'Plus Jakarta Sans, Normal';text-align:center;text-anchor:middle;fill:#e6324b;stroke-width:1.00179;paint-order:stroke fill markers" /><path
             id="path830"
             style="display:inline;vector-effect:non-scaling-stroke;fill:#e6324b;stroke-width:0.0129405;-inkscape-stroke:hairline;paint-order:stroke fill markers"
             d="m 1468.8839,94.757641 c 0,0 -4.0758,5.136893 -5.5653,8.034319 -0.8609,1.67444 -1.9043,3.32309 -1.9043,5.31756 0,1.99447 0.7923,3.90728 2.2026,5.31758 1.2988,1.29878 3.0239,2.07164 4.8464,2.18606 -0.341,-1.8789 -0.6859,-4.85722 -1.0205,-4.96995 -2.0686,-0.69675 -3.9312,-3.00154 -3.9312,-5.42279 0,-0.33167 0.023,-1.31032 0.1008,-0.98784 0.6107,2.53774 2.7119,4.43014 5.322,4.43499 2.6193,-0.005 4.7251,-1.90946 5.3265,-4.45878 0.01,-0.0414 0.018,-0.0617 0.027,-0.0653 0.056,-0.0248 0.069,0.7799 0.07,1.07695 0,2.38915 -1.7463,4.70002 -3.7819,5.42279 -0.3521,0.12499 -0.7466,3.09155 -1.126,4.9667 1.8063,-0.12396 3.5143,-0.89443 4.8026,-2.18281 1.4104,-1.41031 2.2026,-3.32312 2.2026,-5.31759 0,-1.99447 -1.0363,-3.64676 -1.9042,-5.31755 -1.5106,-2.908262 -5.6665,-8.034324 -5.6665,-8.034324 z m 0.051,9.625349 c 0.9571,10e-6 1.733,0.91609 1.733,1.73305 0,0.81695 -0.7759,1.73303 -1.733,1.73304 -0.9571,1e-5 -1.7437,-0.77591 -1.7437,-1.73304 0,-0.95714 0.7866,-1.73305 1.7437,-1.73305 z" /></g><g
           id="g952"
           transform="matrix(2.769928,-1.5992187,1.5992187,2.769928,-4025.8803,2648.913)"><path
             d="m 1468.883,123.1289 q -5.0785,0 -8.9357,-2.37857 -3.8571,-2.37858 -6.0428,-6.42857 -2.1858,-4.11429 -2.1858,-9.25715 0,-5.142851 2.1858,-9.19285 2.1857,-4.049999 6.0428,-6.364284 3.8572,-2.378571 8.9357,-2.378571 3.2143,0 6.0429,1.157143 2.8285,1.157142 5.0143,3.149999 2.1857,1.928571 3.2785,4.499999 l -4.3714,2.249999 q -1.2857,-2.764285 -3.9214,-4.499999 -2.6357,-1.735713 -6.0429,-1.735713 -3.4071,0 -6.1714,1.735713 -2.7,1.671429 -4.3071,4.692856 -1.5429,2.957138 -1.5429,6.749998 0,3.72857 1.5429,6.75 1.6071,2.95714 4.3071,4.69285 2.7643,1.73572 6.1714,1.73572 3.4072,0 5.9786,-1.73572 2.6357,-1.73571 3.9857,-4.62857 l 4.3714,2.37858 q -1.0928,2.50714 -3.2785,4.49999 -2.1858,1.99286 -5.0143,3.15 -2.8286,1.15715 -6.0429,1.15715 z"
             id="path948"
             style="font-size:64.2857px;font-family:'Plus Jakarta Sans';-inkscape-font-specification:'Plus Jakarta Sans, Normal';text-align:center;text-anchor:middle;fill:#e6324b;stroke-width:1.00179;paint-order:stroke fill markers" /><path
             id="path950"
             style="display:inline;vector-effect:non-scaling-stroke;fill:#e6324b;stroke-width:0.0129405;-inkscape-stroke:hairline;paint-order:stroke fill markers"
             d="m 1468.8839,94.757641 c 0,0 -4.0758,5.136893 -5.5653,8.034319 -0.8609,1.67444 -1.9043,3.32309 -1.9043,5.31756 0,1.99447 0.7923,3.90728 2.2026,5.31758 1.2988,1.29878 3.0239,2.07164 4.8464,2.18606 -0.341,-1.8789 -0.6859,-4.85722 -1.0205,-4.96995 -2.0686,-0.69675 -3.9312,-3.00154 -3.9312,-5.42279 0,-0.33167 0.023,-1.31032 0.1008,-0.98784 0.6107,2.53774 2.7119,4.43014 5.322,4.43499 2.6193,-0.005 4.7251,-1.90946 5.3265,-4.45878 0.01,-0.0414 0.018,-0.0617 0.027,-0.0653 0.056,-0.0248 0.069,0.7799 0.07,1.07695 0,2.38915 -1.7463,4.70002 -3.7819,5.42279 -0.3521,0.12499 -0.7466,3.09155 -1.126,4.9667 1.8063,-0.12396 3.5143,-0.89443 4.8026,-2.18281 1.4104,-1.41031 2.2026,-3.32312 2.2026,-5.31759 0,-1.99447 -1.0363,-3.64676 -1.9042,-5.31755 -1.5106,-2.908262 -5.6665,-8.034324 -5.6665,-8.034324 z m 0.051,9.625349 c 0.9571,10e-6 1.733,0.91609 1.733,1.73305 0,0.81695 -0.7759,1.73303 -1.733,1.73304 -0.9571,1e-5 -1.7437,-0.77591 -1.7437,-1.73304 0,-0.95714 0.7866,-1.73305 1.7437,-1.73305 z" /></g><g
           id="g960"
           transform="matrix(2.769928,-1.5992187,1.5992187,2.769928,-4179.7598,2520.8467)"><path
             d="m 1468.883,123.1289 q -5.0785,0 -8.9357,-2.37857 -3.8571,-2.37858 -6.0428,-6.42857 -2.1858,-4.11429 -2.1858,-9.25715 0,-5.142851 2.1858,-9.19285 2.1857,-4.049999 6.0428,-6.364284 3.8572,-2.378571 8.9357,-2.378571 3.2143,0 6.0429,1.157143 2.8285,1.157142 5.0143,3.149999 2.1857,1.928571 3.2785,4.499999 l -4.3714,2.249999 q -1.2857,-2.764285 -3.9214,-4.499999 -2.6357,-1.735713 -6.0429,-1.735713 -3.4071,0 -6.1714,1.735713 -2.7,1.671429 -4.3071,4.692856 -1.5429,2.957138 -1.5429,6.749998 0,3.72857 1.5429,6.75 1.6071,2.95714 4.3071,4.69285 2.7643,1.73572 6.1714,1.73572 3.4072,0 5.9786,-1.73572 2.6357,-1.73571 3.9857,-4.62857 l 4.3714,2.37858 q -1.0928,2.50714 -3.2785,4.49999 -2.1858,1.99286 -5.0143,3.15 -2.8286,1.15715 -6.0429,1.15715 z"
             id="path956"
             style="font-size:64.2857px;font-family:'Plus Jakarta Sans';-inkscape-font-specification:'Plus Jakarta Sans, Normal';text-align:center;text-anchor:middle;fill:#e6324b;stroke-width:1.00179;paint-order:stroke fill markers" /><path
             id="path958"
             style="display:inline;vector-effect:non-scaling-stroke;fill:#e6324b;stroke-width:0.0129405;-inkscape-stroke:hairline;paint-order:stroke fill markers"
             d="m 1468.8839,94.757641 c 0,0 -4.0758,5.136893 -5.5653,8.034319 -0.8609,1.67444 -1.9043,3.32309 -1.9043,5.31756 0,1.99447 0.7923,3.90728 2.2026,5.31758 1.2988,1.29878 3.0239,2.07164 4.8464,2.18606 -0.341,-1.8789 -0.6859,-4.85722 -1.0205,-4.96995 -2.0686,-0.69675 -3.9312,-3.00154 -3.9312,-5.42279 0,-0.33167 0.023,-1.31032 0.1008,-0.98784 0.6107,2.53774 2.7119,4.43014 5.322,4.43499 2.6193,-0.005 4.7251,-1.90946 5.3265,-4.45878 0.01,-0.0414 0.018,-0.0617 0.027,-0.0653 0.056,-0.0248 0.069,0.7799 0.07,1.07695 0,2.38915 -1.7463,4.70002 -3.7819,5.42279 -0.3521,0.12499 -0.7466,3.09155 -1.126,4.9667 1.8063,-0.12396 3.5143,-0.89443 4.8026,-2.18281 1.4104,-1.41031 2.2026,-3.32312 2.2026,-5.31759 0,-1.99447 -1.0363,-3.64676 -1.9042,-5.31755 -1.5106,-2.908262 -5.6665,-8.034324 -5.6665,-8.034324 z m 0.051,9.625349 c 0.9571,10e-6 1.733,0.91609 1.733,1.73305 0,0.81695 -0.7759,1.73303 -1.733,1.73304 -0.9571,1e-5 -1.7437,-0.77591 -1.7437,-1.73304 0,-0.95714 0.7866,-1.73305 1.7437,-1.73305 z" /></g></g><use
         x="0"
         y="0"
         inkscape:tiled-clone-of="#g973"
         xlink:href="#g973"
         id="use8909" /><use
         x="0"
         y="0"
         inkscape:tiled-clone-of="#g973"
         xlink:href="#g973"
         transform="translate(0,132.29166)"
         id="use8911" /><use
         x="0"
         y="0"
         inkscape:tiled-clone-of="#g973"
         xlink:href="#g973"
         transform="translate(0,264.58332)"
         id="use8913" /><use
         x="0"
         y="0"
         inkscape:tiled-clone-of="#g973"
         xlink:href="#g973"
         transform="translate(0,396.87498)"
         id="use8915" /><use
         x="0"
         y="0"
         inkscape:tiled-clone-of="#g973"
         xlink:href="#g973"
         transform="translate(0,529.16664)"
         id="use8917" /><use
         x="0"
         y="0"
         inkscape:tiled-clone-of="#g973"
         xlink:href="#g973"
         transform="translate(0,661.4583)"
         id="use8919" /><use
         x="0"
         y="0"
         inkscape:tiled-clone-of="#g973"
         xlink:href="#g973"
         transform="translate(132.29166)"
         id="use8921" /><use
         x="0"
         y="0"
         inkscape:tiled-clone-of="#g973"
         xlink:href="#g973"
         transform="translate(132.29166,132.29166)"
         id="use8923" /><use
         x="0"
         y="0"
         inkscape:tiled-clone-of="#g973"
         xlink:href="#g973"
         transform="translate(132.29166,264.58332)"
         id="use8925" /><use
         x="0"
         y="0"
         inkscape:tiled-clone-of="#g973"
         xlink:href="#g973"
         transform="translate(132.29166,396.87498)"
         id="use8927" /><use
         x="0"
         y="0"
         inkscape:tiled-clone-of="#g973"
         xlink:href="#g973"
         transform="translate(132.29166,529.16664)"
         id="use8929" /><use
         x="0"
         y="0"
         inkscape:tiled-clone-of="#g973"
         xlink:href="#g973"
         transform="translate(132.29166,661.4583)"
         id="use8931" /><use
         x="0"
         y="0"
         inkscape:tiled-clone-of="#g973"
         xlink:href="#g973"
         transform="translate(264.58332)"
         id="use8933" /><use
         x="0"
         y="0"
         inkscape:tiled-clone-of="#g973"
         xlink:href="#g973"
         transform="translate(264.58332,132.29166)"
         id="use8935" /><use
         x="0"
         y="0"
         inkscape:tiled-clone-of="#g973"
         xlink:href="#g973"
         transform="translate(264.58332,264.58332)"
         id="use8937" /><use
         x="0"
         y="0"
         inkscape:tiled-clone-of="#g973"
         xlink:href="#g973"
         transform="translate(264.58332,396.87498)"
         id="use8939" /><use
         x="0"
         y="0"
         inkscape:tiled-clone-of="#g973"
         xlink:href="#g973"
         transform="translate(264.58332,529.16664)"
         id="use8941" /><use
         x="0"
         y="0"
         inkscape:tiled-clone-of="#g973"
         xlink:href="#g973"
         transform="translate(264.58332,661.4583)"
         id="use8943" /><use
         x="0"
         y="0"
         inkscape:tiled-clone-of="#g973"
         xlink:href="#g973"
         transform="translate(396.87498)"
         id="use8945" /><use
         x="0"
         y="0"
         inkscape:tiled-clone-of="#g973"
         xlink:href="#g973"
         transform="translate(396.87498,132.29166)"
         id="use8947" /><use
         x="0"
         y="0"
         inkscape:tiled-clone-of="#g973"
         xlink:href="#g973"
         transform="translate(396.87498,264.58332)"
         id="use8949" /><use
         x="0"
         y="0"
         inkscape:tiled-clone-of="#g973"
         xlink:href="#g973"
         transform="translate(396.87498,396.87498)"
         id="use8951" /><use
         x="0"
         y="0"
         inkscape:tiled-clone-of="#g973"
         xlink:href="#g973"
         transform="translate(396.87498,529.16664)"
         id="use8953" /><use
         x="0"
         y="0"
         inkscape:tiled-clone-of="#g973"
         xlink:href="#g973"
         transform="translate(396.87498,661.4583)"
         id="use8955" /><use
         x="0"
         y="0"
         inkscape:tiled-clone-of="#g973"
         xlink:href="#g973"
         transform="translate(529.16664)"
         id="use8957" /><use
         x="0"
         y="0"
         inkscape:tiled-clone-of="#g973"
         xlink:href="#g973"
         transform="translate(529.16664,132.29166)"
         id="use8959" /><use
         x="0"
         y="0"
         inkscape:tiled-clone-of="#g973"
         xlink:href="#g973"
         transform="translate(529.16664,264.58332)"
         id="use8961" /><use
         x="0"
         y="0"
         inkscape:tiled-clone-of="#g973"
         xlink:href="#g973"
         transform="translate(529.16664,396.87498)"
         id="use8963" /><use
         x="0"
         y="0"
         inkscape:tiled-clone-of="#g973"
         xlink:href="#g973"
         transform="translate(529.16664,529.16664)"
         id="use8965" /><use
         x="0"
         y="0"
         inkscape:tiled-clone-of="#g973"
         xlink:href="#g973"
         transform="translate(529.16664,661.4583)"
         id="use8967" /><use
         x="0"
         y="0"
         inkscape:tiled-clone-of="#g973"
         xlink:href="#g973"
         transform="translate(661.4583)"
         id="use8969" /><use
         x="0"
         y="0"
         inkscape:tiled-clone-of="#g973"
         xlink:href="#g973"
         transform="translate(661.4583,132.29166)"
         id="use8971" /><use
         x="0"
         y="0"
         inkscape:tiled-clone-of="#g973"
         xlink:href="#g973"
         transform="translate(661.4583,264.58332)"
         id="use8973" /><use
         x="0"
         y="0"
         inkscape:tiled-clone-of="#g973"
         xlink:href="#g973"
         transform="translate(661.4583,396.87498)"
         id="use8975" /><use
         x="0"
         y="0"
         inkscape:tiled-clone-of="#g973"
         xlink:href="#g973"
         transform="translate(661.4583,529.16664)"
         id="use8977" /><use
         x="0"
         y="0"
         inkscape:tiled-clone-of="#g973"
         xlink:href="#g973"
         transform="translate(661.4583,661.4583)"
         id="use8979" /></g></g></svg>
